<svg id="Layer_1" data-name="Layer 1" xmlns="http://www.w3.org/2000/svg" viewBox="0 0 60 60"><defs><style>.cls-1{fill:#08fdd8;}</style></defs><g id="Pinterrest"><path class="cls-1" d="M62,32A30,30,0,0,1,32,62a30.29,30.29,0,0,1-8-1.1L27,55l1.7-9.5s1.8,3.7,7,3.6,9.8-2.2,13.9-10.2.6-22.3-11.9-25.2S14.6,18.1,12.9,28.5,19.5,43,19.5,43l1.2-4.4a12.66,12.66,0,0,1-.6-14c4.5-7.6,16.1-8.4,21.4-2.3s2.3,16.6-1.2,19.8-7,2.3-8.4,1.2-2.1-3.1-.8-7.2,2.5-6.9,1.5-9.6-5.3-2.3-6.7-.5-3.1,5-1.2,10.1L20,53v6.5A30,30,0,1,1,62,32Z" transform="translate(-2 -2)"/></g></svg>