<svg id="Layer_1" data-name="Layer 1" xmlns="http://www.w3.org/2000/svg" viewBox="0 0 612 497.28"><defs><style>.cls-1{fill:none;}.cls-2{fill:#08fdd8;}</style></defs><rect class="cls-1" x="66.94" y="9.58" width="478.13" height="478.13"/><path class="cls-2" d="M192.46,644.64c231,0,357.26-191.33,357.26-357.26,0-5.43,0-10.84-.36-16.23a255.65,255.65,0,0,0,62.64-65,250.76,250.76,0,0,1-72.12,19.75,126,126,0,0,0,55.2-69.45,251.58,251.58,0,0,1-79.73,30.48,125.71,125.71,0,0,0-91.55-39.58c-68.95,0-125.68,56.73-125.68,125.68a125.91,125.91,0,0,0,3.25,28.42A356.68,356.68,0,0,1,42.59,170.27c-33.13,57-16,131,38.88,167.61a124.64,124.64,0,0,1-57-15.71v1.59A126,126,0,0,0,125.21,446.84,125.42,125.42,0,0,1,68.52,449a126,126,0,0,0,117.31,87.19A252,252,0,0,1,29.89,590.05,255.23,255.23,0,0,1,0,588.24a355.57,355.57,0,0,0,192.46,56.3" transform="translate(0 -147.36)"/></svg>