<svg id="Social_Icons" data-name="Social Icons" xmlns="http://www.w3.org/2000/svg" viewBox="0 0 128 128"><defs><style>.cls-1{fill:none;}.cls-2{fill:#08fdd8;fill-rule:evenodd;}</style></defs><g id="_7_stroke" data-name="7 stroke"><g id="Instagram"><rect class="cls-1" width="128" height="128"/><path id="Instagram-2" data-name="Instagram" class="cls-2" d="M105.84,29.84a7.68,7.68,0,1,1-7.68-7.68A7.68,7.68,0,0,1,105.84,29.84ZM64,85.33A21.33,21.33,0,1,1,85.33,64,21.33,21.33,0,0,1,64,85.33Zm0-54.19A32.87,32.87,0,1,0,96.87,64,32.87,32.87,0,0,0,64,31.14Zm0-19.61c17.09,0,19.11.07,25.86.37a35.49,35.49,0,0,1,11.89,2.21,19.85,19.85,0,0,1,7.35,4.79,19.8,19.8,0,0,1,4.79,7.36,35.35,35.35,0,0,1,2.21,11.88c.3,6.75.37,8.77.37,25.86s-.07,19.11-.37,25.86a35.49,35.49,0,0,1-2.21,11.89,21.18,21.18,0,0,1-12.14,12.14,35.49,35.49,0,0,1-11.89,2.21c-6.75.31-8.77.37-25.86.37s-19.11-.06-25.86-.37a35.49,35.49,0,0,1-11.89-2.21,19.82,19.82,0,0,1-7.35-4.78,19.8,19.8,0,0,1-4.79-7.36A35.49,35.49,0,0,1,11.9,89.86c-.3-6.75-.37-8.77-.37-25.86s.06-19.11.37-25.86a35.35,35.35,0,0,1,2.21-11.88A19.8,19.8,0,0,1,18.9,18.9a19.77,19.77,0,0,1,7.35-4.79A35.49,35.49,0,0,1,38.14,11.9C44.89,11.6,46.91,11.53,64,11.53ZM64,0C46.62,0,44.44.07,37.61.38a47.22,47.22,0,0,0-15.53,3,31.29,31.29,0,0,0-11.34,7.38A31.29,31.29,0,0,0,3.36,22.08a47.22,47.22,0,0,0-3,15.53C.07,44.44,0,46.62,0,64S.07,83.56.38,90.39a47.22,47.22,0,0,0,3,15.53,31.29,31.29,0,0,0,7.38,11.34,31.42,31.42,0,0,0,11.34,7.38,47,47,0,0,0,15.53,3c6.83.32,9,.39,26.39.39s19.56-.07,26.39-.39a47,47,0,0,0,15.53-3,32.69,32.69,0,0,0,18.72-18.72,47,47,0,0,0,3-15.53c.32-6.83.39-9,.39-26.39s-.07-19.56-.39-26.39a47,47,0,0,0-3-15.53,31.42,31.42,0,0,0-7.38-11.34,31.42,31.42,0,0,0-11.34-7.38,47.22,47.22,0,0,0-15.53-3C83.56.07,81.38,0,64,0Z"/></g></g></svg>