<svg id="Layer_1" data-name="Layer 1" xmlns="http://www.w3.org/2000/svg" viewBox="0 0 60 60"><defs><style>.cls-1{fill:#08fdd8;}</style></defs><g id="Layer_9" data-name="Layer 9"><path class="cls-1" d="M2,6V58a4,4,0,0,0,4,4H58a4,4,0,0,0,4-4V6a4,4,0,0,0-4-4H6A4,4,0,0,0,2,6ZM19.1,52H12V24.4h7.1ZM15.6,18.9A3.48,3.48,0,0,1,12,15.5a3.48,3.48,0,0,1,3.6-3.4,3.48,3.48,0,0,1,3.6,3.4A3.61,3.61,0,0,1,15.6,18.9ZM52,52H44.9V38.2a23.21,23.21,0,0,0-.4-5.7,4.26,4.26,0,0,0-1.4-2,4,4,0,0,0-2.4-.7,5.09,5.09,0,0,0-3.2,1,5.36,5.36,0,0,0-2,2.7,22.32,22.32,0,0,0-.5,6.2V52H26.4V24.4h7.1v4.1a11.45,11.45,0,0,1,13.7-3.8,8.22,8.22,0,0,1,3.1,2.2A6.77,6.77,0,0,1,51.7,30a20.79,20.79,0,0,1,.4,4.9V52Z" transform="translate(-2 -2)"/></g></svg>