<svg id="Layer_1" data-name="Layer 1" xmlns="http://www.w3.org/2000/svg" viewBox="0 0 582.5 749.81"><defs><style>.cls-1{fill:#842c91;}.cls-2{fill:#a66e29;}.cls-3{fill:#dea84e;}.cls-4{fill:#a66f29;}</style></defs><polygon class="cls-1" points="582.5 72.5 582.5 168.2 339.19 168.2 339.19 440.54 243.43 385.2 243.43 168.2 0 168.2 0 72.5 582.5 72.5"/><polygon class="cls-2" points="520.29 701.51 339.19 590.25 243.43 531.41 62.21 420.02 62.21 394.6 243.43 505.99 339.19 564.83 520.16 676.03 520.29 701.51"/><polygon class="cls-1" points="339.19 590.25 339.19 749.81 243.43 749.81 243.43 531.41 339.19 590.25"/><polygon class="cls-3" points="519.59 72.5 401.27 72.5 519.4 0 519.59 72.5"/><polygon class="cls-4" points="498.37 168.2 339.19 260.08 339.19 234.66 454.33 168.2 498.37 168.2"/><polygon class="cls-3" points="454.33 168.2 339.19 234.66 339.19 168.2 454.33 168.2"/><polygon class="cls-3" points="520.29 676.1 520.16 676.03 339.19 564.83 243.43 505.99 62.21 394.6 62.21 280.61 243.43 169.41 243.43 290.01 160.95 337.6 182.94 350.31 243.43 385.2 339.19 440.54 519.72 544.75 520.29 676.1"/><polygon class="cls-2" points="243.43 290.01 243.43 315.43 182.94 350.31 160.95 337.6 243.43 290.01"/></svg>